<?xml version="1.0" encoding="utf-8"?>
<!-- Generator: Adobe Illustrator 16.0.0, SVG Export Plug-In . SVG Version: 6.00 Build 0)  -->
<!DOCTYPE svg PUBLIC "-//W3C//DTD SVG 1.1//EN" "http://www.w3.org/Graphics/SVG/1.1/DTD/svg11.dtd">
<svg version="1.1" id="Слой_1" xmlns="http://www.w3.org/2000/svg" xmlns:xlink="http://www.w3.org/1999/xlink" x="0px" y="0px"
	 width="512px" height="512px" viewBox="0 0 512 512" enable-background="new 0 0 512 512" xml:space="preserve">
<g id="eclipse">
	<g>
		<g>
			<path fill="#F6BB42" d="M221.431,3.129c1.921,1.922,3.117,4.578,3.117,7.516l-0.008,106.575c0,5.875-4.757,10.64-10.64,10.64
				c-5.875,0-10.633-4.766-10.641-10.64l0.008-106.575c0-5.875,4.758-10.641,10.641-10.641
				C216.845,0.004,219.501,1.191,221.431,3.129z"/>
		</g>
	</g>
	<g>
		<g>
			<path fill="#FFCE54" d="M10.648,84.205c2.727,0,5.445,1.031,7.523,3.109l75.357,75.356c4.148,4.156,4.156,10.891,0,15.047
				c-4.156,4.156-10.898,4.156-15.046,0L3.125,102.36c-4.156-4.156-4.156-10.89,0-15.046C5.203,85.236,7.922,84.205,10.648,84.205z"
				/>
		</g>
	</g>
	<g>
		<g>
			<path fill="#FFCE54" d="M341.809,415.351c2.719,0,5.438,1.047,7.516,3.125l75.357,75.356c4.156,4.156,4.156,10.891,0,15.047
				s-10.889,4.156-15.045,0l-75.357-75.356c-4.156-4.156-4.156-10.891,0-15.047C336.357,416.397,339.092,415.351,341.809,415.351z"
				/>
		</g>
	</g>
	<g>
		<g>
			<path fill="#F6BB42" d="M387.262,290.573c1.922-1.922,4.578-3.125,7.516-3.125l106.574,0.016c5.875,0,10.641,4.75,10.641,10.641
				c0,5.875-4.766,10.64-10.641,10.64H394.777c-5.875-0.016-10.625-4.78-10.625-10.655
				C384.152,295.151,385.34,292.495,387.262,290.573z"/>
		</g>
	</g>
	<g>
		<g>
			<path fill="#FFCE54" d="M331.17,170.202c-0.016-2.734,1.031-5.453,3.109-7.531l75.357-75.356c4.156-4.156,10.889-4.156,15.045,0
				s4.156,10.89,0,15.046l-75.357,75.357c-4.156,4.156-10.889,4.156-15.045,0C332.201,175.639,331.154,172.92,331.17,170.202z"/>
		</g>
	</g>
	<path fill="#FFCE54" d="M213.908,436.413c-76.271,0-138.324-62.046-138.324-138.324c0-76.263,62.053-138.309,138.324-138.309
		c76.262,0,138.307,62.045,138.307,138.309C352.215,374.367,290.17,436.413,213.908,436.413z"/>
	<path fill="#F6BB42" d="M213.908,149.14c-82.271,0-148.964,66.686-148.964,148.949c0,82.278,66.693,148.964,148.964,148.964
		c82.262,0,148.963-66.686,148.963-148.964C362.871,215.826,296.17,149.14,213.908,149.14z M304.186,388.382
		c-24.125,24.109-56.178,37.391-90.278,37.391c-34.108,0-66.17-13.281-90.287-37.391c-24.116-24.124-37.397-56.186-37.397-90.293
		c0-34.093,13.281-66.155,37.397-90.279c24.117-24.108,56.178-37.39,90.287-37.39c34.1,0,66.153,13.281,90.278,37.39
		c24.125,24.124,37.404,56.186,37.404,90.279C341.59,332.196,328.311,364.258,304.186,388.382z"/>
	<g>
		<path fill="#646C77" d="M281.529,340.384c-60.692,0-109.91-49.217-109.91-109.918c0-13.655,2.492-26.718,7.039-38.764
			c-41.577,15.671-71.154,55.826-71.154,102.888c0,60.701,49.21,109.902,109.919,109.902c47.053,0,87.2-29.562,102.887-71.154
			C308.248,337.884,295.186,340.384,281.529,340.384z"/>
	</g>
	<g>
		<path fill="#434A54" d="M238.704,383.21c-60.709,0-109.918-49.201-109.918-109.901c0-24.938,8.297-47.921,22.273-66.358
			c-26.46,20.078-43.554,51.858-43.554,87.638c0,60.701,49.21,109.902,109.919,109.902c35.772,0,67.543-17.094,87.622-43.545
			C286.607,374.914,263.625,383.21,238.704,383.21z"/>
	</g>
</g>
</svg>
